<svg xmlns="http://www.w3.org/2000/svg" viewBox="0 0 64 64" fill="none">
  <rect width="64" height="64" rx="14" fill="#0f172a"/>
  <defs>
    <linearGradient id="g" x1="8" y1="8" x2="56" y2="56" gradientUnits="userSpaceOnUse">
      <stop stop-color="#0ea5e9"/>
      <stop offset="1" stop-color="#6366f1"/>
    </linearGradient>
  </defs>
  <path d="M32 10C22 10 14 18 14 28C14 35 18 41 24 44C20 46 18 50 18 54H22C22 51 24 48 28 47C29 47 30 47 32 47C34 47 35 47 36 47C40 48 42 51 42 54H46C46 50 44 46 40 44C46 41 50 35 50 28C50 18 42 10 32 10Z" fill="url(#g)"/>
  <path d="M20 28C20 23 25 19 32 19C39 19 44 23 44 28" stroke="white" stroke-width="2" stroke-linecap="round" opacity="0.9"/>
  <path d="M18 34C23 31 28 36 32 36C36 36 41 31 46 34" stroke="white" stroke-width="2" stroke-linecap="round" opacity="0.75"/>
</svg>
